# xmcd CD database file
#
# Track frame offsets:
#	150
#	13634
#	27407
#	34449
#	46772
#	59203
#	72409
#	85308
#	96139
#	103767
#	116304
#	130387
#	140417
#	151043
#	162133
#	174068
#	186312
#	205418
#
# Disc length: 2911 seconds
#
# Revision: 0
# Processed by: cddbd v1.5.2PL0 Copyright (c) Steve Scherf et al.
# Submitted via: CDex 1.79
#
DISCID=f70b5d12
DTITLE=Various Artist - Hall Of Fame Volume 6
DYEAR=1999
DGENRE=Country
TTITLE0=01-Hank thompson-the wild side of life
TTITLE1=02-merle travis-divorce me c.o.d.
TTITLE2=03-buck owens-you're for me
TTITLE3=04-willie nelson-seven spanish angels (live)
TTITLE4=05-bill monroe-kentucky waltz
TTITLE5=06-hank snow-you've broken my heart
TTITLE6=07-don williams-amanda )live)
TTITLE7=08-jerry lee lewis-i'll make it all up to you (live)
TTITLE8=09-eddy arnold-you were mine for a while (live broadcast)
TTITLE9=10-faron young-the echo of your footsteps
TTITLE10=11-ernest tubb-tomorrow never comes!
TTITLE11=12-the louvin brothers-when i stop dreaming (live broadcast)
TTITLE12=13-red sovine-money, marbles and chalk
TTITLE13=14-jack guthrie-oakie boogie
TTITLE14=15-gene autry-back in the saddle again
TTITLE15=16-the carter family-oh take me back
TTITLE16=17-merle haggard-honky tonk night time man (live)
TTITLE17=18-floyd tillman-don't be blue
EXTD=YEAR: 1999
EXTT0=
EXTT1=
EXTT2=
EXTT3=
EXTT4=
EXTT5=
EXTT6=
EXTT7=
EXTT8=
EXTT9=
EXTT10=
EXTT11=
EXTT12=
EXTT13=
EXTT14=
EXTT15=
EXTT16=
EXTT17=
PLAYORDER=
